{"title":"Murder at 1600 (1997) 720p AC3 (5.1) HDTV no logos","uid":9662038,"size":2136145868,"categoryP":"video","categoryS":"hd___movies","magnet":"?xt=urn:btih:068779e9f0c0ff27e74c61e9024d98df1f778aa5&amp;dn=Murder+at+1600+%281997%29+720p+AC3+%285.1%29+HDTV+no+logos&amp;tr=udp%3A%2F%2Ftracker.openbittorrent.com%3A80&amp;tr=udp%3A%2F%2Fopen.demonii.com%3A1337&amp;tr=udp%3A%2F%2Ftracker.coppersurfer.tk%3A6969&amp;tr=udp%3A%2F%2Fexodus.desync.com%3A6969","seeders":2,"leechers":0,"uploader":"nabsltd","files":2,"time":1393299728,"description":"This is my own rip.\n\nGeneral\nUnique ID                        : 201904984444500422156682024493413052574 (0x97E57C4CC2A76221A8FD58579AB0309E)\nFormat                           : Matroska\nFormat version                   : Version 4 / Version 2\nFile size                        : 1.96 GiB\nDuration                         : 1h 46mn\nOverall bit rate mode            : Variable\nOverall bit rate                 : 2 634 Kbps\nEncoded date                     : UTC 2014-02-24 22:43:53\nWriting application              : mkvmerge v6.5.0 ('Isn't she lovely') built on Oct 20 2013 12:50:05\nWriting library                  : libebml v1.3.0 + libmatroska v1.4.1\n\nVideo\nID                               : 1\nFormat                           : AVC\nFormat/Info                      : Advanced Video Codec\nFormat profile                   : &lt;a class=&quot;__cf_email__&quot; href=&quot;/cdn-cgi/l/email-protection&quot; data-cfemail=&quot;df97b6b8b79f93ebf1ee&quot;&gt;[email&amp;#160;protected]&lt;/a&gt;&lt;script cf-hash='f9e31' type=&quot;text/javascript&quot;&gt;\n/* &lt;![CDATA[ */!function(){try{var t=&quot;currentScript&quot;in document?document.currentScript:function(){for(var t=document.getElementsByTagName(&quot;script&quot;),e=t.length;e--;)if(t[e].getAttribute(&quot;cf-hash&quot;))return t[e]}();if(t&amp;&amp;t.previousSibling){var e,r,n,i,c=t.previousSibling,a=c.getAttribute(&quot;data-cfemail&quot;);if(a){for(e=&quot;&quot;,r=parseInt(a.substr(0,2),16),n=2;a.length-n;n+=2)i=parseInt(a.substr(n,2),16)^r,e+=String.fromCharCode(i);e=document.createTextNode(e),c.parentNode.replaceChild(e,c)}}}catch(u){}}();/* ]]&gt; */&lt;/script&gt;\nFormat settings, CABAC           : Yes\nFormat settings, ReFrames        : 7 frames\nCodec ID                         : V_MPEG4/ISO/AVC\nDuration                         : 1h 46mn\nBit rate mode                    : Variable\nBit rate                         : 2 198 Kbps\nMaximum bit rate                 : 10.2 Mbps\nWidth                            : 1 280 pixels\nHeight                           : 692 pixels\nDisplay aspect ratio             : 1.850\nFrame rate                       : 23.976 fps\nColor space                      : YUV\nChroma subsampling               : 4:2:0\nBit depth                        : 8 bits\nScan type                        : Progressive\nBits/(Pixel*Frame)               : 0.103\nStream size                      : 1.64 GiB (83%)\nWriting library                  : x264 core 135 r2345 f0c1c53\nLanguage                         : English\nDefault                          : Yes\nForced                           : No\n\nAudio\nID                               : 2\nFormat                           : AC-3\nFormat/Info                      : Audio Coding 3\nMode extension                   : CM (complete main)\nCodec ID                         : A_AC3\nDuration                         : 1h 46mn\nBit rate mode                    : Constant\nBit rate                         : 384 Kbps\nChannel(s)                       : 6 channels\nChannel positions                : Front: L C R, Side: L R, LFE\nSampling rate                    : 48.0 KHz\nBit depth                        : 16 bits\nCompression mode                 : Lossy\nStream size                      : 293 MiB (15%)\nLanguage                         : English\nDefault                          : Yes\nForced                           : No\n\nMenu\n00:00:00.000                     : en:Prologue... Handled\n00:02:57.344                     : en:Bloody Discovery\n00:06:45.488                     : en:Called to 1600\n00:08:57.120                     : en:National Security\n00:13:23.594                     : en:The Missing Name\n00:16:21.564                     : en:Battle at Harlan's\n00:19:39.720                     : en:A Suspect Emerges\n00:25:58.098                     : en:Intruder Alert\n00:30:09.433                     : en:Into Sharper Focus\n00:32:25.068                     : en:An Eye on Kyle\n00:38:27.889                     : en:An Eye on Harlan\n00:40:17.999                     : en:The Ugly Truth\n00:43:46.521                     : en:Nina Takes a Chance\n00:46:32.832                     : en:Team Spirit\n00:48:53.639                     : en:Hasty Exit\n00:51:52.234                     : en:Duty-Bound\n00:54:19.047                     : en:Make Us Disappear\n00:56:20.502                     : en:Kyle Beyond Reach?\n01:00:07.312                     : en:Others Present\n01:03:48.305                     : en:Sharpshooting\n01:06:00.957                     : en:Jordan's Advice\n01:08:46.456                     : en:Doesn't Add Up\n01:11:32.997                     : en:Trailer to Spikings\n01:15:25.126                     : en:House of Targets\n01:18:11.812                     : en:News for Naive\n01:20:01.130                     : en:Tape's Secrets\n01:21:58.330                     : en:President Choice\n01:23:45.604                     : en:In Via the Way Out\n01:25:15.235                     : en:Stengel Diversion\n01:27:44.217                     : en:Underground\n01:29:58.268                     : en:Ambush in the Dark\n01:32:18.847                     : en:Two-Way Strategy\n01:36:01.631                     : en:Janitor's Punch\n01:37:58.186                     : en:Laying Down the Law\n01:40:16.427                     : en:Casualties of War\n01:41:26.539                     : en:Who You Know\n01:43:10.434                     : en:End Credits\n","torrent":{"xt":"urn:btih:068779e9f0c0ff27e74c61e9024d98df1f778aa5","amp;dn":"Murder+at+1600+%281997%29+720p+AC3+%285.1%29+HDTV+no+logos","amp;tr":["udp%3A%2F%2Ftracker.openbittorrent.com%3A80","udp%3A%2F%2Fopen.demonii.com%3A1337","udp%3A%2F%2Ftracker.coppersurfer.tk%3A6969","udp%3A%2F%2Fexodus.desync.com%3A6969"],"infoHash":"068779e9f0c0ff27e74c61e9024d98df1f778aa5","infoHashBuffer":{"type":"Buffer","data":[6,135,121,233,240,192,255,39,231,76,97,233,2,77,152,223,31,119,138,165]},"announce":[],"urlList":[]}}